<svg xmlns="http://www.w3.org/2000/svg" width="1000" height="1060" viewBox="0 0 1000 1060">
<rect width="1000" height="1060" fill="#edf2f7"/>
<text x="30" y="36" font-family="sans-serif" font-size="23">DUCKY / course 19 / steps 390-405</text>
<text x="30" y="70" font-family="sans-serif" font-size="17">Nominal footprint map, top view. All parts move downward (-Z). Retention/load UNKNOWN.</text>
<rect x="359.52" y="481.92" width="24.96" height="24.96" fill="#F4EE2A" stroke="none"/>
<path d="M384.48,506.88 L384.48,481.92" stroke="#142d40" stroke-width="1.2" fill="none"/>
<rect x="359.52" y="584.32" width="24.96" height="24.96" fill="#F4EE2A" stroke="none"/>
<path d="M384.48,609.28 L384.48,584.32" stroke="#142d40" stroke-width="1.2" fill="none"/>
<rect x="359.52" y="507.52" width="24.96" height="24.96" fill="#F4EE2A" stroke="none"/>
<path d="M384.48,532.48 L384.48,507.52" stroke="#142d40" stroke-width="1.2" fill="none"/>
<rect x="333.92" y="558.72" width="24.96" height="24.96" fill="#F4EE2A" stroke="none"/>
<path d="M333.92,583.68 L333.92,558.72" stroke="#142d40" stroke-width="1.2" fill="none"/>
<rect x="333.92" y="533.12" width="24.96" height="24.96" fill="#F4EE2A" stroke="none"/>
<path d="M333.92,558.08 L333.92,533.12" stroke="#142d40" stroke-width="1.2" fill="none"/>
<rect x="359.52" y="430.72" width="24.96" height="24.96" fill="#F4EE2A" stroke="none"/>
<path d="M384.48,455.68 L384.48,430.72" stroke="#142d40" stroke-width="1.2" fill="none"/>
<path d="M359.52,430.72 L384.48,430.72" stroke="#142d40" stroke-width="1.2" fill="none"/>
<rect x="333.92" y="481.92" width="24.96" height="24.96" fill="#F4EE2A" stroke="none"/>
<path d="M333.92,506.88 L333.92,481.92" stroke="#142d40" stroke-width="1.2" fill="none"/>
<rect x="333.92" y="584.32" width="24.96" height="24.96" fill="#F4EE2A" stroke="none"/>
<path d="M333.92,609.28 L333.92,584.32" stroke="#142d40" stroke-width="1.2" fill="none"/>
<rect x="359.52" y="609.92" width="24.96" height="24.96" fill="#F4EE2A" stroke="none"/>
<path d="M384.48,634.88 L384.48,609.92" stroke="#142d40" stroke-width="1.2" fill="none"/>
<path d="M359.52,634.88 L384.48,634.88" stroke="#142d40" stroke-width="1.2" fill="none"/>
<rect x="359.52" y="456.32" width="24.96" height="24.96" fill="#F4EE2A" stroke="none"/>
<path d="M384.48,481.28 L384.48,456.32" stroke="#142d40" stroke-width="1.2" fill="none"/>
<rect x="333.92" y="507.52" width="24.96" height="24.96" fill="#F4EE2A" stroke="none"/>
<path d="M333.92,532.48 L333.92,507.52" stroke="#142d40" stroke-width="1.2" fill="none"/>
<rect x="333.92" y="430.72" width="24.96" height="24.96" fill="#F4EE2A" stroke="none"/>
<path d="M333.92,455.68 L333.92,430.72" stroke="#142d40" stroke-width="1.2" fill="none"/>
<path d="M333.92,430.72 L358.88,430.72" stroke="#142d40" stroke-width="1.2" fill="none"/>
<rect x="359.52" y="533.12" width="24.96" height="24.96" fill="#F4EE2A" stroke="none"/>
<path d="M384.48,558.08 L384.48,533.12" stroke="#142d40" stroke-width="1.2" fill="none"/>
<rect x="359.52" y="558.72" width="24.96" height="24.96" fill="#F4EE2A" stroke="none"/>
<path d="M384.48,583.68 L384.48,558.72" stroke="#142d40" stroke-width="1.2" fill="none"/>
<rect x="333.92" y="609.92" width="24.96" height="24.96" fill="#F4EE2A" stroke="none"/>
<path d="M333.92,634.88 L333.92,609.92" stroke="#142d40" stroke-width="1.2" fill="none"/>
<path d="M333.92,634.88 L358.88,634.88" stroke="#142d40" stroke-width="1.2" fill="none"/>
<rect x="333.92" y="456.32" width="24.96" height="24.96" fill="#F4EE2A" stroke="none"/>
<path d="M333.92,481.28 L333.92,456.32" stroke="#142d40" stroke-width="1.2" fill="none"/>
<text x="359.20" y="532.80" text-anchor="middle" font-family="sans-serif" font-size="10" fill="#ffffff" stroke="#142d40" stroke-width="2" paint-order="stroke">398</text>
<rect x="385.12" y="584.32" width="24.96" height="24.96" fill="#F4EE2A" stroke="none"/>
<path d="M385.12,609.28 L385.12,584.32" stroke="#142d40" stroke-width="1.2" fill="none"/>
<path d="M385.12,584.32 L410.08,584.32" stroke="#142d40" stroke-width="1.2" fill="none"/>
<rect x="410.72" y="584.32" width="24.96" height="24.96" fill="#F4EE2A" stroke="none"/>
<path d="M435.68,609.28 L435.68,584.32" stroke="#142d40" stroke-width="1.2" fill="none"/>
<path d="M410.72,584.32 L435.68,584.32" stroke="#142d40" stroke-width="1.2" fill="none"/>
<rect x="385.12" y="661.12" width="24.96" height="24.96" fill="#F4EE2A" stroke="none"/>
<path d="M385.12,686.08 L385.12,661.12" stroke="#142d40" stroke-width="1.2" fill="none"/>
<path d="M385.12,686.08 L410.08,686.08" stroke="#142d40" stroke-width="1.2" fill="none"/>
<rect x="410.72" y="661.12" width="24.96" height="24.96" fill="#F4EE2A" stroke="none"/>
<path d="M435.68,686.08 L435.68,661.12" stroke="#142d40" stroke-width="1.2" fill="none"/>
<path d="M410.72,686.08 L435.68,686.08" stroke="#142d40" stroke-width="1.2" fill="none"/>
<rect x="385.12" y="609.92" width="24.96" height="24.96" fill="#F4EE2A" stroke="none"/>
<path d="M385.12,634.88 L385.12,609.92" stroke="#142d40" stroke-width="1.2" fill="none"/>
<rect x="410.72" y="609.92" width="24.96" height="24.96" fill="#F4EE2A" stroke="none"/>
<path d="M435.68,634.88 L435.68,609.92" stroke="#142d40" stroke-width="1.2" fill="none"/>
<rect x="385.12" y="635.52" width="24.96" height="24.96" fill="#F4EE2A" stroke="none"/>
<path d="M385.12,660.48 L385.12,635.52" stroke="#142d40" stroke-width="1.2" fill="none"/>
<rect x="410.72" y="635.52" width="24.96" height="24.96" fill="#F4EE2A" stroke="none"/>
<path d="M435.68,660.48 L435.68,635.52" stroke="#142d40" stroke-width="1.2" fill="none"/>
<text x="410.40" y="635.20" text-anchor="middle" font-family="sans-serif" font-size="10" fill="#ffffff" stroke="#142d40" stroke-width="2" paint-order="stroke">394</text>
<rect x="385.12" y="533.12" width="24.96" height="24.96" fill="#F4EE2A" stroke="none"/>
<path d="M385.12,558.08 L385.12,533.12" stroke="#142d40" stroke-width="1.2" fill="none"/>
<path d="M385.12,558.08 L410.08,558.08" stroke="#142d40" stroke-width="1.2" fill="none"/>
<rect x="410.72" y="533.12" width="24.96" height="24.96" fill="#F4EE2A" stroke="none"/>
<path d="M410.72,558.08 L435.68,558.08" stroke="#142d40" stroke-width="1.2" fill="none"/>
<rect x="436.32" y="533.12" width="24.96" height="24.96" fill="#F4EE2A" stroke="none"/>
<path d="M461.28,558.08 L461.28,533.12" stroke="#142d40" stroke-width="1.2" fill="none"/>
<path d="M436.32,558.08 L461.28,558.08" stroke="#142d40" stroke-width="1.2" fill="none"/>
<rect x="385.12" y="507.52" width="24.96" height="24.96" fill="#F4EE2A" stroke="none"/>
<path d="M385.12,532.48 L385.12,507.52" stroke="#142d40" stroke-width="1.2" fill="none"/>
<path d="M385.12,507.52 L410.08,507.52" stroke="#142d40" stroke-width="1.2" fill="none"/>
<rect x="410.72" y="507.52" width="24.96" height="24.96" fill="#F4EE2A" stroke="none"/>
<path d="M410.72,507.52 L435.68,507.52" stroke="#142d40" stroke-width="1.2" fill="none"/>
<rect x="436.32" y="507.52" width="24.96" height="24.96" fill="#F4EE2A" stroke="none"/>
<path d="M461.28,532.48 L461.28,507.52" stroke="#142d40" stroke-width="1.2" fill="none"/>
<path d="M436.32,507.52 L461.28,507.52" stroke="#142d40" stroke-width="1.2" fill="none"/>
<text x="423.20" y="532.80" text-anchor="middle" font-family="sans-serif" font-size="10" fill="#ffffff" stroke="#142d40" stroke-width="2" paint-order="stroke">399</text>
<rect x="410.72" y="456.32" width="24.96" height="24.96" fill="#F4EE2A" stroke="none"/>
<path d="M435.68,481.28 L435.68,456.32" stroke="#142d40" stroke-width="1.2" fill="none"/>
<path d="M410.72,481.28 L435.68,481.28" stroke="#142d40" stroke-width="1.2" fill="none"/>
<rect x="410.72" y="430.72" width="24.96" height="24.96" fill="#F4EE2A" stroke="none"/>
<path d="M435.68,455.68 L435.68,430.72" stroke="#142d40" stroke-width="1.2" fill="none"/>
<path d="M410.72,430.72 L435.68,430.72" stroke="#142d40" stroke-width="1.2" fill="none"/>
<rect x="385.12" y="456.32" width="24.96" height="24.96" fill="#F4EE2A" stroke="none"/>
<path d="M385.12,481.28 L385.12,456.32" stroke="#142d40" stroke-width="1.2" fill="none"/>
<path d="M385.12,481.28 L410.08,481.28" stroke="#142d40" stroke-width="1.2" fill="none"/>
<rect x="385.12" y="430.72" width="24.96" height="24.96" fill="#F4EE2A" stroke="none"/>
<path d="M385.12,455.68 L385.12,430.72" stroke="#142d40" stroke-width="1.2" fill="none"/>
<path d="M385.12,430.72 L410.08,430.72" stroke="#142d40" stroke-width="1.2" fill="none"/>
<text x="410.40" y="456.00" text-anchor="middle" font-family="sans-serif" font-size="10" fill="#ffffff" stroke="#142d40" stroke-width="2" paint-order="stroke">402</text>
<rect x="385.12" y="405.12" width="24.96" height="24.96" fill="#F4EE2A" stroke="none"/>
<path d="M385.12,430.08 L385.12,405.12" stroke="#142d40" stroke-width="1.2" fill="none"/>
<path d="M385.12,430.08 L410.08,430.08" stroke="#142d40" stroke-width="1.2" fill="none"/>
<rect x="538.72" y="405.12" width="24.96" height="24.96" fill="#F4EE2A" stroke="none"/>
<path d="M538.72,430.08 L563.68,430.08" stroke="#142d40" stroke-width="1.2" fill="none"/>
<rect x="410.72" y="405.12" width="24.96" height="24.96" fill="#F4EE2A" stroke="none"/>
<path d="M410.72,430.08 L435.68,430.08" stroke="#142d40" stroke-width="1.2" fill="none"/>
<rect x="487.52" y="405.12" width="24.96" height="24.96" fill="#F4EE2A" stroke="none"/>
<path d="M487.52,430.08 L512.48,430.08" stroke="#142d40" stroke-width="1.2" fill="none"/>
<rect x="564.32" y="405.12" width="24.96" height="24.96" fill="#F4EE2A" stroke="none"/>
<path d="M589.28,430.08 L589.28,405.12" stroke="#142d40" stroke-width="1.2" fill="none"/>
<path d="M564.32,430.08 L589.28,430.08" stroke="#142d40" stroke-width="1.2" fill="none"/>
<rect x="436.32" y="405.12" width="24.96" height="24.96" fill="#F4EE2A" stroke="none"/>
<path d="M436.32,430.08 L461.28,430.08" stroke="#142d40" stroke-width="1.2" fill="none"/>
<rect x="461.92" y="405.12" width="24.96" height="24.96" fill="#F4EE2A" stroke="none"/>
<path d="M461.92,430.08 L486.88,430.08" stroke="#142d40" stroke-width="1.2" fill="none"/>
<rect x="513.12" y="379.52" width="24.96" height="24.96" fill="#F4EE2A" stroke="none"/>
<path d="M513.12,379.52 L538.08,379.52" stroke="#142d40" stroke-width="1.2" fill="none"/>
<rect x="461.92" y="379.52" width="24.96" height="24.96" fill="#F4EE2A" stroke="none"/>
<path d="M461.92,379.52 L486.88,379.52" stroke="#142d40" stroke-width="1.2" fill="none"/>
<rect x="513.12" y="405.12" width="24.96" height="24.96" fill="#F4EE2A" stroke="none"/>
<path d="M513.12,430.08 L538.08,430.08" stroke="#142d40" stroke-width="1.2" fill="none"/>
<rect x="487.52" y="379.52" width="24.96" height="24.96" fill="#F4EE2A" stroke="none"/>
<path d="M487.52,379.52 L512.48,379.52" stroke="#142d40" stroke-width="1.2" fill="none"/>
<rect x="385.12" y="379.52" width="24.96" height="24.96" fill="#F4EE2A" stroke="none"/>
<path d="M385.12,404.48 L385.12,379.52" stroke="#142d40" stroke-width="1.2" fill="none"/>
<path d="M385.12,379.52 L410.08,379.52" stroke="#142d40" stroke-width="1.2" fill="none"/>
<rect x="538.72" y="379.52" width="24.96" height="24.96" fill="#F4EE2A" stroke="none"/>
<path d="M538.72,379.52 L563.68,379.52" stroke="#142d40" stroke-width="1.2" fill="none"/>
<rect x="410.72" y="379.52" width="24.96" height="24.96" fill="#F4EE2A" stroke="none"/>
<path d="M410.72,379.52 L435.68,379.52" stroke="#142d40" stroke-width="1.2" fill="none"/>
<rect x="564.32" y="379.52" width="24.96" height="24.96" fill="#F4EE2A" stroke="none"/>
<path d="M589.28,404.48 L589.28,379.52" stroke="#142d40" stroke-width="1.2" fill="none"/>
<path d="M564.32,379.52 L589.28,379.52" stroke="#142d40" stroke-width="1.2" fill="none"/>
<rect x="436.32" y="379.52" width="24.96" height="24.96" fill="#F4EE2A" stroke="none"/>
<path d="M436.32,379.52 L461.28,379.52" stroke="#142d40" stroke-width="1.2" fill="none"/>
<text x="487.20" y="404.80" text-anchor="middle" font-family="sans-serif" font-size="10" fill="#ffffff" stroke="#142d40" stroke-width="2" paint-order="stroke">405</text>
<rect x="513.12" y="712.32" width="24.96" height="24.96" fill="#F4EE2A" stroke="none"/>
<path d="M538.08,737.28 L538.08,712.32" stroke="#142d40" stroke-width="1.2" fill="none"/>
<path d="M513.12,737.28 L538.08,737.28" stroke="#142d40" stroke-width="1.2" fill="none"/>
<rect x="436.32" y="712.32" width="24.96" height="24.96" fill="#F4EE2A" stroke="none"/>
<path d="M436.32,737.28 L436.32,712.32" stroke="#142d40" stroke-width="1.2" fill="none"/>
<path d="M436.32,737.28 L461.28,737.28" stroke="#142d40" stroke-width="1.2" fill="none"/>
<rect x="487.52" y="686.72" width="24.96" height="24.96" fill="#F4EE2A" stroke="none"/>
<path d="M487.52,686.72 L512.48,686.72" stroke="#142d40" stroke-width="1.2" fill="none"/>
<rect x="461.92" y="686.72" width="24.96" height="24.96" fill="#F4EE2A" stroke="none"/>
<path d="M461.92,686.72 L486.88,686.72" stroke="#142d40" stroke-width="1.2" fill="none"/>
<rect x="436.32" y="686.72" width="24.96" height="24.96" fill="#F4EE2A" stroke="none"/>
<path d="M436.32,711.68 L436.32,686.72" stroke="#142d40" stroke-width="1.2" fill="none"/>
<path d="M436.32,686.72 L461.28,686.72" stroke="#142d40" stroke-width="1.2" fill="none"/>
<rect x="487.52" y="712.32" width="24.96" height="24.96" fill="#F4EE2A" stroke="none"/>
<path d="M487.52,737.28 L512.48,737.28" stroke="#142d40" stroke-width="1.2" fill="none"/>
<rect x="461.92" y="712.32" width="24.96" height="24.96" fill="#F4EE2A" stroke="none"/>
<path d="M461.92,737.28 L486.88,737.28" stroke="#142d40" stroke-width="1.2" fill="none"/>
<rect x="513.12" y="686.72" width="24.96" height="24.96" fill="#F4EE2A" stroke="none"/>
<path d="M538.08,711.68 L538.08,686.72" stroke="#142d40" stroke-width="1.2" fill="none"/>
<path d="M513.12,686.72 L538.08,686.72" stroke="#142d40" stroke-width="1.2" fill="none"/>
<text x="487.20" y="712.00" text-anchor="middle" font-family="sans-serif" font-size="10" fill="#ffffff" stroke="#142d40" stroke-width="2" paint-order="stroke">390</text>
<rect x="436.32" y="635.52" width="24.96" height="24.96" fill="#F4EE2A" stroke="none"/>
<path d="M461.28,660.48 L461.28,635.52" stroke="#142d40" stroke-width="1.2" fill="none"/>
<path d="M436.32,660.48 L436.32,635.52" stroke="#142d40" stroke-width="1.2" fill="none"/>
<path d="M436.32,635.52 L461.28,635.52" stroke="#142d40" stroke-width="1.2" fill="none"/>
<rect x="461.92" y="661.12" width="24.96" height="24.96" fill="#F4EE2A" stroke="none"/>
<path d="M461.92,661.12 L486.88,661.12" stroke="#142d40" stroke-width="1.2" fill="none"/>
<path d="M461.92,686.08 L486.88,686.08" stroke="#142d40" stroke-width="1.2" fill="none"/>
<rect x="487.52" y="661.12" width="24.96" height="24.96" fill="#F4EE2A" stroke="none"/>
<path d="M512.48,686.08 L512.48,661.12" stroke="#142d40" stroke-width="1.2" fill="none"/>
<path d="M487.52,661.12 L512.48,661.12" stroke="#142d40" stroke-width="1.2" fill="none"/>
<path d="M487.52,686.08 L512.48,686.08" stroke="#142d40" stroke-width="1.2" fill="none"/>
<rect x="436.32" y="661.12" width="24.96" height="24.96" fill="#F4EE2A" stroke="none"/>
<path d="M436.32,686.08 L436.32,661.12" stroke="#142d40" stroke-width="1.2" fill="none"/>
<path d="M436.32,686.08 L461.28,686.08" stroke="#142d40" stroke-width="1.2" fill="none"/>
<text x="474.40" y="660.80" text-anchor="middle" font-family="sans-serif" font-size="10" fill="#ffffff" stroke="#142d40" stroke-width="2" paint-order="stroke">391</text>
<rect x="487.52" y="481.92" width="24.96" height="24.96" fill="#F4EE2A" stroke="none"/>
<path d="M512.48,506.88 L512.48,481.92" stroke="#142d40" stroke-width="1.2" fill="none"/>
<rect x="461.92" y="635.52" width="24.96" height="24.96" fill="#F4EE2A" stroke="none"/>
<path d="M461.92,660.48 L461.92,635.52" stroke="#142d40" stroke-width="1.2" fill="none"/>
<path d="M461.92,660.48 L486.88,660.48" stroke="#142d40" stroke-width="1.2" fill="none"/>
<rect x="487.52" y="584.32" width="24.96" height="24.96" fill="#F4EE2A" stroke="none"/>
<path d="M512.48,609.28 L512.48,584.32" stroke="#142d40" stroke-width="1.2" fill="none"/>
<rect x="461.92" y="533.12" width="24.96" height="24.96" fill="#F4EE2A" stroke="none"/>
<path d="M461.92,558.08 L461.92,533.12" stroke="#142d40" stroke-width="1.2" fill="none"/>
<rect x="461.92" y="558.72" width="24.96" height="24.96" fill="#F4EE2A" stroke="none"/>
<path d="M461.92,583.68 L461.92,558.72" stroke="#142d40" stroke-width="1.2" fill="none"/>
<rect x="487.52" y="507.52" width="24.96" height="24.96" fill="#F4EE2A" stroke="none"/>
<path d="M512.48,532.48 L512.48,507.52" stroke="#142d40" stroke-width="1.2" fill="none"/>
<rect x="461.92" y="481.92" width="24.96" height="24.96" fill="#F4EE2A" stroke="none"/>
<path d="M461.92,506.88 L461.92,481.92" stroke="#142d40" stroke-width="1.2" fill="none"/>
<rect x="461.92" y="584.32" width="24.96" height="24.96" fill="#F4EE2A" stroke="none"/>
<path d="M461.92,609.28 L461.92,584.32" stroke="#142d40" stroke-width="1.2" fill="none"/>
<rect x="487.52" y="533.12" width="24.96" height="24.96" fill="#F4EE2A" stroke="none"/>
<path d="M512.48,558.08 L512.48,533.12" stroke="#142d40" stroke-width="1.2" fill="none"/>
<rect x="461.92" y="507.52" width="24.96" height="24.96" fill="#F4EE2A" stroke="none"/>
<path d="M461.92,532.48 L461.92,507.52" stroke="#142d40" stroke-width="1.2" fill="none"/>
<rect x="487.52" y="609.92" width="24.96" height="24.96" fill="#F4EE2A" stroke="none"/>
<path d="M512.48,634.88 L512.48,609.92" stroke="#142d40" stroke-width="1.2" fill="none"/>
<rect x="487.52" y="456.32" width="24.96" height="24.96" fill="#F4EE2A" stroke="none"/>
<path d="M512.48,481.28 L512.48,456.32" stroke="#142d40" stroke-width="1.2" fill="none"/>
<path d="M487.52,456.32 L512.48,456.32" stroke="#142d40" stroke-width="1.2" fill="none"/>
<rect x="487.52" y="635.52" width="24.96" height="24.96" fill="#F4EE2A" stroke="none"/>
<path d="M512.48,660.48 L512.48,635.52" stroke="#142d40" stroke-width="1.2" fill="none"/>
<path d="M487.52,660.48 L512.48,660.48" stroke="#142d40" stroke-width="1.2" fill="none"/>
<rect x="461.92" y="609.92" width="24.96" height="24.96" fill="#F4EE2A" stroke="none"/>
<path d="M461.92,634.88 L461.92,609.92" stroke="#142d40" stroke-width="1.2" fill="none"/>
<rect x="461.92" y="456.32" width="24.96" height="24.96" fill="#F4EE2A" stroke="none"/>
<path d="M461.92,481.28 L461.92,456.32" stroke="#142d40" stroke-width="1.2" fill="none"/>
<path d="M461.92,456.32 L486.88,456.32" stroke="#142d40" stroke-width="1.2" fill="none"/>
<rect x="487.52" y="558.72" width="24.96" height="24.96" fill="#F4EE2A" stroke="none"/>
<path d="M512.48,583.68 L512.48,558.72" stroke="#142d40" stroke-width="1.2" fill="none"/>
<text x="487.20" y="558.40" text-anchor="middle" font-family="sans-serif" font-size="10" fill="#ffffff" stroke="#142d40" stroke-width="2" paint-order="stroke">396</text>
<rect x="487.52" y="430.72" width="24.96" height="24.96" fill="#F4EE2A" stroke="none"/>
<path d="M512.48,455.68 L512.48,430.72" stroke="#142d40" stroke-width="1.2" fill="none"/>
<path d="M487.52,430.72 L512.48,430.72" stroke="#142d40" stroke-width="1.2" fill="none"/>
<path d="M487.52,455.68 L512.48,455.68" stroke="#142d40" stroke-width="1.2" fill="none"/>
<rect x="461.92" y="430.72" width="24.96" height="24.96" fill="#F4EE2A" stroke="none"/>
<path d="M461.92,455.68 L461.92,430.72" stroke="#142d40" stroke-width="1.2" fill="none"/>
<path d="M461.92,430.72 L486.88,430.72" stroke="#142d40" stroke-width="1.2" fill="none"/>
<path d="M461.92,455.68 L486.88,455.68" stroke="#142d40" stroke-width="1.2" fill="none"/>
<text x="487.20" y="443.20" text-anchor="middle" font-family="sans-serif" font-size="10" fill="#ffffff" stroke="#142d40" stroke-width="2" paint-order="stroke">404</text>
<rect x="564.32" y="635.52" width="24.96" height="24.96" fill="#F4EE2A" stroke="none"/>
<path d="M564.32,635.52 L589.28,635.52" stroke="#142d40" stroke-width="1.2" fill="none"/>
<rect x="589.92" y="661.12" width="24.96" height="24.96" fill="#F4EE2A" stroke="none"/>
<path d="M614.88,686.08 L614.88,661.12" stroke="#142d40" stroke-width="1.2" fill="none"/>
<path d="M589.92,686.08 L614.88,686.08" stroke="#142d40" stroke-width="1.2" fill="none"/>
<rect x="513.12" y="635.52" width="24.96" height="24.96" fill="#F4EE2A" stroke="none"/>
<path d="M513.12,660.48 L513.12,635.52" stroke="#142d40" stroke-width="1.2" fill="none"/>
<path d="M513.12,635.52 L538.08,635.52" stroke="#142d40" stroke-width="1.2" fill="none"/>
<rect x="538.72" y="661.12" width="24.96" height="24.96" fill="#F4EE2A" stroke="none"/>
<path d="M538.72,686.08 L563.68,686.08" stroke="#142d40" stroke-width="1.2" fill="none"/>
<rect x="564.32" y="661.12" width="24.96" height="24.96" fill="#F4EE2A" stroke="none"/>
<path d="M564.32,686.08 L589.28,686.08" stroke="#142d40" stroke-width="1.2" fill="none"/>
<rect x="513.12" y="661.12" width="24.96" height="24.96" fill="#F4EE2A" stroke="none"/>
<path d="M513.12,686.08 L513.12,661.12" stroke="#142d40" stroke-width="1.2" fill="none"/>
<path d="M513.12,686.08 L538.08,686.08" stroke="#142d40" stroke-width="1.2" fill="none"/>
<rect x="589.92" y="635.52" width="24.96" height="24.96" fill="#F4EE2A" stroke="none"/>
<path d="M614.88,660.48 L614.88,635.52" stroke="#142d40" stroke-width="1.2" fill="none"/>
<path d="M589.92,635.52 L614.88,635.52" stroke="#142d40" stroke-width="1.2" fill="none"/>
<rect x="538.72" y="635.52" width="24.96" height="24.96" fill="#F4EE2A" stroke="none"/>
<path d="M538.72,635.52 L563.68,635.52" stroke="#142d40" stroke-width="1.2" fill="none"/>
<text x="564.00" y="660.80" text-anchor="middle" font-family="sans-serif" font-size="10" fill="#ffffff" stroke="#142d40" stroke-width="2" paint-order="stroke">392</text>
<rect x="538.72" y="533.12" width="24.96" height="24.96" fill="#F4EE2A" stroke="none"/>
<path d="M538.72,558.08 L563.68,558.08" stroke="#142d40" stroke-width="1.2" fill="none"/>
<rect x="589.92" y="507.52" width="24.96" height="24.96" fill="#F4EE2A" stroke="none"/>
<path d="M589.92,507.52 L614.88,507.52" stroke="#142d40" stroke-width="1.2" fill="none"/>
<rect x="564.32" y="533.12" width="24.96" height="24.96" fill="#F4EE2A" stroke="none"/>
<path d="M564.32,558.08 L589.28,558.08" stroke="#142d40" stroke-width="1.2" fill="none"/>
<rect x="641.12" y="507.52" width="24.96" height="24.96" fill="#F4EE2A" stroke="none"/>
<path d="M666.08,532.48 L666.08,507.52" stroke="#142d40" stroke-width="1.2" fill="none"/>
<path d="M641.12,507.52 L666.08,507.52" stroke="#142d40" stroke-width="1.2" fill="none"/>
<rect x="615.52" y="533.12" width="24.96" height="24.96" fill="#F4EE2A" stroke="none"/>
<path d="M615.52,558.08 L640.48,558.08" stroke="#142d40" stroke-width="1.2" fill="none"/>
<rect x="538.72" y="507.52" width="24.96" height="24.96" fill="#F4EE2A" stroke="none"/>
<path d="M538.72,507.52 L563.68,507.52" stroke="#142d40" stroke-width="1.2" fill="none"/>
<rect x="513.12" y="533.12" width="24.96" height="24.96" fill="#F4EE2A" stroke="none"/>
<path d="M513.12,558.08 L513.12,533.12" stroke="#142d40" stroke-width="1.2" fill="none"/>
<path d="M513.12,558.08 L538.08,558.08" stroke="#142d40" stroke-width="1.2" fill="none"/>
<rect x="641.12" y="533.12" width="24.96" height="24.96" fill="#F4EE2A" stroke="none"/>
<path d="M666.08,558.08 L666.08,533.12" stroke="#142d40" stroke-width="1.2" fill="none"/>
<path d="M641.12,558.08 L666.08,558.08" stroke="#142d40" stroke-width="1.2" fill="none"/>
<rect x="564.32" y="507.52" width="24.96" height="24.96" fill="#F4EE2A" stroke="none"/>
<path d="M564.32,507.52 L589.28,507.52" stroke="#142d40" stroke-width="1.2" fill="none"/>
<rect x="615.52" y="507.52" width="24.96" height="24.96" fill="#F4EE2A" stroke="none"/>
<path d="M615.52,507.52 L640.48,507.52" stroke="#142d40" stroke-width="1.2" fill="none"/>
<rect x="589.92" y="533.12" width="24.96" height="24.96" fill="#F4EE2A" stroke="none"/>
<path d="M589.92,558.08 L614.88,558.08" stroke="#142d40" stroke-width="1.2" fill="none"/>
<rect x="513.12" y="507.52" width="24.96" height="24.96" fill="#F4EE2A" stroke="none"/>
<path d="M513.12,532.48 L513.12,507.52" stroke="#142d40" stroke-width="1.2" fill="none"/>
<path d="M513.12,507.52 L538.08,507.52" stroke="#142d40" stroke-width="1.2" fill="none"/>
<text x="589.60" y="532.80" text-anchor="middle" font-family="sans-serif" font-size="10" fill="#ffffff" stroke="#142d40" stroke-width="2" paint-order="stroke">400</text>
<rect x="589.92" y="430.72" width="24.96" height="24.96" fill="#F4EE2A" stroke="none"/>
<path d="M589.92,430.72 L614.88,430.72" stroke="#142d40" stroke-width="1.2" fill="none"/>
<rect x="589.92" y="456.32" width="24.96" height="24.96" fill="#F4EE2A" stroke="none"/>
<path d="M589.92,481.28 L614.88,481.28" stroke="#142d40" stroke-width="1.2" fill="none"/>
<rect x="538.72" y="430.72" width="24.96" height="24.96" fill="#F4EE2A" stroke="none"/>
<path d="M538.72,455.68 L538.72,430.72" stroke="#142d40" stroke-width="1.2" fill="none"/>
<path d="M538.72,430.72 L563.68,430.72" stroke="#142d40" stroke-width="1.2" fill="none"/>
<rect x="564.32" y="430.72" width="24.96" height="24.96" fill="#F4EE2A" stroke="none"/>
<path d="M564.32,430.72 L589.28,430.72" stroke="#142d40" stroke-width="1.2" fill="none"/>
<rect x="538.72" y="456.32" width="24.96" height="24.96" fill="#F4EE2A" stroke="none"/>
<path d="M538.72,481.28 L538.72,456.32" stroke="#142d40" stroke-width="1.2" fill="none"/>
<path d="M538.72,481.28 L563.68,481.28" stroke="#142d40" stroke-width="1.2" fill="none"/>
<rect x="615.52" y="430.72" width="24.96" height="24.96" fill="#F4EE2A" stroke="none"/>
<path d="M640.48,455.68 L640.48,430.72" stroke="#142d40" stroke-width="1.2" fill="none"/>
<path d="M615.52,430.72 L640.48,430.72" stroke="#142d40" stroke-width="1.2" fill="none"/>
<rect x="564.32" y="456.32" width="24.96" height="24.96" fill="#F4EE2A" stroke="none"/>
<path d="M564.32,481.28 L589.28,481.28" stroke="#142d40" stroke-width="1.2" fill="none"/>
<rect x="615.52" y="456.32" width="24.96" height="24.96" fill="#F4EE2A" stroke="none"/>
<path d="M640.48,481.28 L640.48,456.32" stroke="#142d40" stroke-width="1.2" fill="none"/>
<path d="M615.52,481.28 L640.48,481.28" stroke="#142d40" stroke-width="1.2" fill="none"/>
<text x="589.60" y="456.00" text-anchor="middle" font-family="sans-serif" font-size="10" fill="#ffffff" stroke="#142d40" stroke-width="2" paint-order="stroke">403</text>
<rect x="641.12" y="609.92" width="24.96" height="24.96" fill="#F4EE2A" stroke="none"/>
<path d="M641.12,634.88 L666.08,634.88" stroke="#142d40" stroke-width="1.2" fill="none"/>
<rect x="589.92" y="584.32" width="24.96" height="24.96" fill="#F4EE2A" stroke="none"/>
<path d="M589.92,609.28 L589.92,584.32" stroke="#142d40" stroke-width="1.2" fill="none"/>
<path d="M589.92,584.32 L614.88,584.32" stroke="#142d40" stroke-width="1.2" fill="none"/>
<rect x="666.72" y="584.32" width="24.96" height="24.96" fill="#F4EE2A" stroke="none"/>
<path d="M691.68,609.28 L691.68,584.32" stroke="#142d40" stroke-width="1.2" fill="none"/>
<path d="M666.72,584.32 L691.68,584.32" stroke="#142d40" stroke-width="1.2" fill="none"/>
<rect x="589.92" y="609.92" width="24.96" height="24.96" fill="#F4EE2A" stroke="none"/>
<path d="M589.92,634.88 L589.92,609.92" stroke="#142d40" stroke-width="1.2" fill="none"/>
<path d="M589.92,634.88 L614.88,634.88" stroke="#142d40" stroke-width="1.2" fill="none"/>
<rect x="615.52" y="584.32" width="24.96" height="24.96" fill="#F4EE2A" stroke="none"/>
<path d="M615.52,584.32 L640.48,584.32" stroke="#142d40" stroke-width="1.2" fill="none"/>
<rect x="641.12" y="584.32" width="24.96" height="24.96" fill="#F4EE2A" stroke="none"/>
<path d="M641.12,584.32 L666.08,584.32" stroke="#142d40" stroke-width="1.2" fill="none"/>
<rect x="666.72" y="609.92" width="24.96" height="24.96" fill="#F4EE2A" stroke="none"/>
<path d="M691.68,634.88 L691.68,609.92" stroke="#142d40" stroke-width="1.2" fill="none"/>
<path d="M666.72,634.88 L691.68,634.88" stroke="#142d40" stroke-width="1.2" fill="none"/>
<rect x="615.52" y="609.92" width="24.96" height="24.96" fill="#F4EE2A" stroke="none"/>
<path d="M615.52,634.88 L640.48,634.88" stroke="#142d40" stroke-width="1.2" fill="none"/>
<text x="640.80" y="609.60" text-anchor="middle" font-family="sans-serif" font-size="10" fill="#ffffff" stroke="#142d40" stroke-width="2" paint-order="stroke">395</text>
<rect x="641.12" y="481.92" width="24.96" height="24.96" fill="#F4EE2A" stroke="none"/>
<path d="M641.12,481.92 L666.08,481.92" stroke="#142d40" stroke-width="1.2" fill="none"/>
<path d="M641.12,506.88 L666.08,506.88" stroke="#142d40" stroke-width="1.2" fill="none"/>
<rect x="589.92" y="481.92" width="24.96" height="24.96" fill="#F4EE2A" stroke="none"/>
<path d="M589.92,506.88 L589.92,481.92" stroke="#142d40" stroke-width="1.2" fill="none"/>
<path d="M589.92,481.92 L614.88,481.92" stroke="#142d40" stroke-width="1.2" fill="none"/>
<path d="M589.92,506.88 L614.88,506.88" stroke="#142d40" stroke-width="1.2" fill="none"/>
<rect x="615.52" y="481.92" width="24.96" height="24.96" fill="#F4EE2A" stroke="none"/>
<path d="M615.52,481.92 L640.48,481.92" stroke="#142d40" stroke-width="1.2" fill="none"/>
<path d="M615.52,506.88 L640.48,506.88" stroke="#142d40" stroke-width="1.2" fill="none"/>
<rect x="666.72" y="481.92" width="24.96" height="24.96" fill="#F4EE2A" stroke="none"/>
<path d="M691.68,506.88 L691.68,481.92" stroke="#142d40" stroke-width="1.2" fill="none"/>
<path d="M666.72,481.92 L691.68,481.92" stroke="#142d40" stroke-width="1.2" fill="none"/>
<path d="M666.72,506.88 L691.68,506.88" stroke="#142d40" stroke-width="1.2" fill="none"/>
<text x="640.80" y="494.40" text-anchor="middle" font-family="sans-serif" font-size="10" fill="#ffffff" stroke="#142d40" stroke-width="2" paint-order="stroke">401</text>
<rect x="615.52" y="661.12" width="24.96" height="24.96" fill="#F4EE2A" stroke="none"/>
<path d="M640.48,686.08 L640.48,661.12" stroke="#142d40" stroke-width="1.2" fill="none"/>
<path d="M615.52,686.08 L615.52,661.12" stroke="#142d40" stroke-width="1.2" fill="none"/>
<path d="M615.52,686.08 L640.48,686.08" stroke="#142d40" stroke-width="1.2" fill="none"/>
<rect x="615.52" y="635.52" width="24.96" height="24.96" fill="#F4EE2A" stroke="none"/>
<path d="M640.48,660.48 L640.48,635.52" stroke="#142d40" stroke-width="1.2" fill="none"/>
<path d="M615.52,660.48 L615.52,635.52" stroke="#142d40" stroke-width="1.2" fill="none"/>
<path d="M615.52,635.52 L640.48,635.52" stroke="#142d40" stroke-width="1.2" fill="none"/>
<text x="628.00" y="660.80" text-anchor="middle" font-family="sans-serif" font-size="10" fill="#ffffff" stroke="#142d40" stroke-width="2" paint-order="stroke">393</text>
<rect x="666.72" y="558.72" width="24.96" height="24.96" fill="#F4EE2A" stroke="none"/>
<path d="M691.68,583.68 L691.68,558.72" stroke="#142d40" stroke-width="1.2" fill="none"/>
<path d="M666.72,583.68 L691.68,583.68" stroke="#142d40" stroke-width="1.2" fill="none"/>
<rect x="666.72" y="507.52" width="24.96" height="24.96" fill="#F4EE2A" stroke="none"/>
<path d="M691.68,532.48 L691.68,507.52" stroke="#142d40" stroke-width="1.2" fill="none"/>
<path d="M666.72,532.48 L666.72,507.52" stroke="#142d40" stroke-width="1.2" fill="none"/>
<path d="M666.72,507.52 L691.68,507.52" stroke="#142d40" stroke-width="1.2" fill="none"/>
<rect x="641.12" y="558.72" width="24.96" height="24.96" fill="#F4EE2A" stroke="none"/>
<path d="M641.12,583.68 L641.12,558.72" stroke="#142d40" stroke-width="1.2" fill="none"/>
<path d="M641.12,558.72 L666.08,558.72" stroke="#142d40" stroke-width="1.2" fill="none"/>
<path d="M641.12,583.68 L666.08,583.68" stroke="#142d40" stroke-width="1.2" fill="none"/>
<rect x="666.72" y="533.12" width="24.96" height="24.96" fill="#F4EE2A" stroke="none"/>
<path d="M691.68,558.08 L691.68,533.12" stroke="#142d40" stroke-width="1.2" fill="none"/>
<path d="M666.72,558.08 L666.72,533.12" stroke="#142d40" stroke-width="1.2" fill="none"/>
<text x="666.40" y="545.60" text-anchor="middle" font-family="sans-serif" font-size="10" fill="#ffffff" stroke="#142d40" stroke-width="2" paint-order="stroke">397</text>
<text x="30" y="1025" font-family="sans-serif" font-size="17">Labels are assembly-step numbers. Use assembly-steps.csv for exact part IDs, type, color and coordinates.</text>
</svg>